<svg width="40" height="40" viewBox="0 0 24 24" fill="none" xmlns="http://www.w3.org/2000/svg">
  <path
    d="M7.5 9H9.8C10.6 9 11.0 9.3 11.4 9.8L12.6 11.3C13.0 11.8 13.4 12.1 14.2 12.1H16.5C17.6 12.1 18.5 13.0 18.6 14.1L18.9 16.1C19.1 17.6 18.0 18.9 16.5 18.9H7.5C6.0 18.9 4.9 17.6 5.1 16.1L5.4 14.1C5.5 13.0 6.4 12.1 7.5 12.1H9.0"
    stroke="#FFFFFF"
    stroke-width="1.5"
    stroke-linecap="round"
    stroke-linejoin="round"
  />
  <circle cx="15.7" cy="13.6" r="0.9" fill="#FFFFFF"/>
  <circle cx="8.3" cy="13.3" r="0.6" fill="#FFFFFF"/>
  <line x1="8.3" y1="12" x2="8.3" y2="14.6" stroke="#FFFFFF" stroke-width="1.2" stroke-linecap="round"/>
  <line x1="7" y1="13.3" x2="9.6" y2="13.3" stroke="#FFFFFF" stroke-width="1.2" stroke-linecap="round"/>
</svg>
