<?xml version="1.0" encoding="UTF-8" standalone="no"?>
<svg
   width="256px"
   height="211px"
   viewBox="0 0 256 211"
   version="1.1"
   preserveAspectRatio="xMidYMid"
   id="svg6"
   sodipodi:docname="Black_Void_Linux.svg"
   inkscape:version="1.4.2 (ebf0e940, 2025-05-08)"
   xmlns:inkscape="http://www.inkscape.org/namespaces/inkscape"
   xmlns:sodipodi="http://sodipodi.sourceforge.net/DTD/sodipodi-0.dtd"
   xmlns="http://www.w3.org/2000/svg"
   xmlns:svg="http://www.w3.org/2000/svg">
  <defs
     id="defs6">
    <inkscape:path-effect
       effect="fillet_chamfer"
       id="path-effect39"
       is_visible="true"
       lpeversion="1"
       nodesatellites_param="F,0,0,1,0,0,0,1 @ F,0,0,1,0,0,0,1 @ F,0,0,1,0,17.558103,0,1 @ F,0,0,1,0,0,0,1 @ F,0,0,1,0,0,0,1 @ F,0,0,1,0,17.558103,0,1 @ F,0,0,1,0,0,0,1 @ F,0,0,1,0,17.558103,0,1 @ F,0,0,1,0,0,0,1 @ F,0,0,1,0,17.558103,0,1"
       radius="0"
       unit="px"
       method="auto"
       mode="F"
       chamfer_steps="1"
       flexible="false"
       use_knot_distance="true"
       apply_no_radius="true"
       apply_with_radius="true"
       only_selected="false"
       hide_knots="false" />
    <inkscape:path-effect
       effect="fillet_chamfer"
       id="path-effect8"
       is_visible="true"
       lpeversion="1"
       nodesatellites_param="F,0,0,1,0,0,0,1 @ F,0,0,1,0,0,0,1 @ F,0,0,1,0,17.558103,0,1 @ F,0,0,1,0,0,0,1 @ F,0,0,1,0,0,0,1 @ F,0,0,1,0,17.558103,0,1 @ F,0,0,1,0,0,0,1 @ F,0,0,1,0,17.558103,0,1 @ F,0,0,1,0,0,0,1 @ F,0,0,1,0,17.558103,0,1"
       radius="0"
       unit="px"
       method="auto"
       mode="F"
       chamfer_steps="1"
       flexible="false"
       use_knot_distance="true"
       apply_no_radius="true"
       apply_with_radius="true"
       only_selected="false"
       hide_knots="false" />
  </defs>
  <sodipodi:namedview
     id="namedview6"
     pagecolor="#505050"
     bordercolor="#eeeeee"
     borderopacity="1"
     inkscape:showpageshadow="0"
     inkscape:pageopacity="0"
     inkscape:pagecheckerboard="0"
     inkscape:deskcolor="#505050"
     inkscape:zoom="1.8101934"
     inkscape:cx="125.67718"
     inkscape:cy="112.97136"
     inkscape:window-width="1440"
     inkscape:window-height="768"
     inkscape:window-x="926"
     inkscape:window-y="493"
     inkscape:window-maximized="0"
     inkscape:current-layer="g38" />
  <g
     id="g38"
     inkscape:label="raw"
     style="display:inline">
    <path
       d="m 128.01682,210.46982 c 22.03188,-0.0468 76.93801,-4.32122 61.35907,-19.90017 L 165.4732,166.66697 c -9.34803,-9.34804 -24.23627,10.57658 -37.45638,10.58221 -39.772407,0.0169 -72.038207,-32.24185 -72.014257,-72.01426 0.008,-13.215417 19.94622,-28.092367 10.60151,-37.437077 l -23.94799,-23.94799 c -15.58317,-15.58317 -19.86489,39.34713 -19.87417,61.385067 -0.0245,58.11962 47.11529,105.2349 105.234907,105.2349 z"
       fill="#ABC2AB"
       id="path32"
       style="fill:#ffffff;fill-opacity:1"
       inkscape:label="UPPER"
       sodipodi:nodetypes="ssssssssss" />
    <path
       d="m 66.657763,19.900193 23.90269,23.90268 c 9.34803,9.34804 24.236267,-10.57659 37.456367,-10.58221 39.77242,-0.0169 72.03822,32.24185 72.01427,72.014257 -0.008,13.21541 -19.94623,28.09237 -10.60151,37.43708 l 23.948,23.94799 c 15.58318,15.58317 19.86486,-39.34713 19.87415,-61.38507 C 233.27623,47.115303 186.13644,-0.03390687 128.01682,2.3125556e-5 105.9849,0.01292313 51.078823,4.3212431 66.657763,19.900193 Z"
       fill="#478061"
       id="path33"
       style="fill:#ffffff;fill-opacity:1"
       inkscape:label="LOWER"
       sodipodi:nodetypes="sssssssss" />
    <circle
       fill="#ABC2AB"
       id="circle33"
       style="display:none;fill:#ffffff;fill-opacity:1"
       r="33.503357"
       cy="105.2349"
       cx="128" />
    <path
       sodipodi:type="star"
       style="fill:#ffffff;fill-opacity:1"
       id="path34"
       inkscape:flatsided="true"
       sodipodi:sides="10"
       sodipodi:cx="93.75"
       sodipodi:cy="70.3125"
       sodipodi:r1="28.409607"
       sodipodi:r2="20.887121"
       sodipodi:arg1="0.5214651"
       sodipodi:arg2="0.83562437"
       inkscape:rounded="0"
       inkscape:randomized="0"
       d="M 118.38369,84.464775 105.36058,96.241253 A 54.038284,54.038284 11.877749 0 1 72.678156,89.367241 l -7.175732,-16.02485 a 54.038284,54.038284 119.87775 0 1 16.636998,-28.958644 54.038284,54.038284 11.877749 0 1 32.682418,6.874012 54.038284,54.038284 83.877749 0 1 3.56185,33.207016 z"
       transform="matrix(-1.3660185,0,0,-1.3660185,254.38617,201.54818)"
       inkscape:path-effect="#path-effect39" />
    <path
       d="m 30.591915,124.81039 c -1.147564,0.81968 -2.192665,1.22952 -3.135303,1.22952 h -4.057453 c -0.573782,0 -1.024609,-0.10245 -1.352481,-0.30737 -0.327871,-0.20493 -0.59427,-0.51231 -0.799195,-0.92215 L 0.46842244,86.203138 C 0.38645233,86.121168 0.34546728,86.01871 0.34546728,85.895763 v -0.368865 c 0,-0.409842 0.14344762,-0.737718 0.43034287,-0.983628 C 1.1036817,84.256383 1.615986,84.11294 2.3127229,84.11294 H 27.579567 c 1.35248,0 2.233641,0.409841 2.643482,1.229525 L 43.010172,109.99455 78.85096,85.342465 c 1.188548,-0.819684 2.438574,-1.229525 3.750078,-1.229525 h 3.995963 c 0.532806,0 0.799208,0.225413 0.799208,0.67624 0,0.368856 -0.327871,0.819683 -0.983614,1.35248 z"
       fill="#000000"
       id="path35"
       inkscape:label="V"
       style="display:none" />
    <path
       d="m 86.35303,126.03991 c -2.131187,0 -4.016463,-0.32787 -5.65583,-0.98362 -1.639384,-0.69673 -3.012366,-1.63937 -4.118944,-2.82792 -1.106579,-1.18855 -1.946755,-2.58201 -2.520528,-4.18039 -0.573773,-1.63938 -0.860659,-3.40171 -0.860659,-5.287 0,-2.41807 0.409842,-4.79516 1.229525,-7.13126 0.819683,-2.33611 1.946754,-4.56976 3.381213,-6.70095 1.475427,-2.131187 3.196763,-4.098434 5.16401,-5.901741 2.008232,-1.803315 4.180404,-3.360721 6.516517,-4.672216 2.377097,-1.311495 4.877141,-2.336103 7.500131,-3.073825 2.623008,-0.778698 5.307485,-1.168047 8.053425,-1.168047 h 30.12348 c 2.17218,0 4.07795,0.327871 5.71734,0.983614 1.68035,0.655752 3.07381,1.577903 4.18039,2.766451 1.10658,1.147555 1.94676,2.520527 2.52053,4.118918 0.57379,1.59839 0.86069,3.340224 0.86069,5.2255 0,2.418083 -0.43034,4.815666 -1.29101,7.192756 -0.8197,2.33611 -1.96726,4.56976 -3.44269,6.70094 -1.47544,2.13118 -3.21728,4.11893 -5.22551,5.96323 -2.00823,1.80331 -4.2009,3.3812 -6.57799,4.73368 -2.37708,1.3115 -4.87713,2.35661 -7.50013,3.13531 -2.62299,0.73772 -5.26649,1.10657 -7.93048,1.10657 z m 37.00886,-25.1439 c 1.35249,-2.868898 2.02874,-5.020573 2.02874,-6.455023 0,-1.188549 -0.43035,-2.008237 -1.29103,-2.459063 -0.81969,-0.450827 -2.04921,-0.67624 -3.68858,-0.67624 h -8.36081 c -1.18854,0 -2.29512,0.163935 -3.31974,0.491807 -0.98363,0.286895 -1.90577,0.7992 -2.76644,1.536913 -0.86067,0.737722 -1.70084,1.72135 -2.52053,2.950883 -0.77869,1.229526 -1.57788,2.766434 -2.39757,4.610723 l -2.950895,6.70095 c -1.557397,3.48367 -2.336095,6.10667 -2.336095,7.869 0,1.18854 0.348364,2.04921 1.045092,2.582 0.696746,0.49181 1.700862,0.73772 3.012348,0.73772 h 8.42229 c 1.27052,0 2.43858,-0.18443 3.50417,-0.55328 1.0656,-0.40985 2.09021,-1.04511 3.07383,-1.90578 0.98362,-0.86067 1.92626,-2.00823 2.82791,-3.44268 0.90166,-1.43445 1.8238,-3.19678 2.76644,-5.28698 z"
       fill="#000000"
       id="path36"
       inkscape:label="O"
       style="display:none" />
    <path
       d="m 144.12269,126.03991 c -0.73771,0 -1.10657,-0.2459 -1.10657,-0.73771 0,-0.2459 0.0615,-0.55329 0.18444,-0.92215 l 17.27487,-38.668719 c 0.49183,-1.065594 1.27053,-1.59839 2.33613,-1.59839 h 21.14791 c 0.7787,0 1.16805,0.266394 1.16805,0.799182 0,0.24591 -0.082,0.512313 -0.24589,0.799208 L 167.6682,124.38005 c -0.49182,1.10658 -1.27052,1.65986 -2.33612,1.65986 z"
       fill="#000000"
       id="path37"
       inkscape:label="I"
       style="display:none" />
    <path
       d="m 174.34897,126.03991 c -0.73772,0 -1.10657,-0.2459 -1.10657,-0.73771 0,-0.2459 0.0615,-0.55329 0.18443,-0.92215 l 17.27488,-38.668719 c 0.49182,-1.065594 1.27053,-1.59839 2.33612,-1.59839 h 49.42712 c 2.13119,0 4.01646,0.327871 5.65583,0.983614 1.63937,0.655752 3.01234,1.577903 4.11892,2.766451 1.10657,1.147555 1.94676,2.520527 2.52055,4.118918 0.57377,1.59839 0.86066,3.340224 0.86066,5.2255 0,2.500053 -0.43033,4.959116 -1.291,7.377186 -0.86067,2.37709 -2.04922,4.63123 -3.56565,6.76242 -1.47543,2.13118 -3.23775,4.09843 -5.28696,5.90174 -2.00824,1.80331 -4.2009,3.36072 -6.578,4.67221 -2.33611,1.27052 -4.79517,2.27464 -7.37717,3.01235 -2.58203,0.73772 -5.16404,1.10658 -7.74605,1.10658 z m 53.48456,-25.1439 c 1.3115,-2.950868 1.96725,-5.102543 1.96725,-6.455023 0,-1.188549 -0.40984,-2.008237 -1.22952,-2.459063 -0.81969,-0.450827 -2.00824,-0.67624 -3.56565,-0.67624 h -12.47973 l -12.17235,27.479996 h 12.41826 c 1.22953,0 2.37709,-0.18443 3.44269,-0.55328 1.06559,-0.40985 2.06971,-1.0451 3.01234,-1.90578 0.98363,-0.90166 1.92627,-2.04921 2.82792,-3.44268 0.94264,-1.43445 1.88528,-3.19678 2.82791,-5.28698 z"
       fill="#000000"
       id="path38"
       inkscape:label="D"
       style="display:none" />
  </g>
  <g
     id="g6"
     inkscape:label="dark-mode"
     style="display:none">
    <path
       d="m 128.01682,210.46982 c 22.03188,-0.0468 76.93801,-4.32122 61.35907,-19.90017 L 165.4732,166.66697 c -9.34803,-9.34804 -24.23627,10.57658 -37.45638,10.58221 -39.772407,0.0169 -72.038207,-32.24185 -72.014257,-72.01426 0.008,-13.215417 19.94622,-28.092367 10.60151,-37.437077 l -23.94799,-23.94799 c -15.58317,-15.58317 -19.86489,39.34713 -19.87417,61.385067 -0.0245,58.11962 47.11529,105.2349 105.234907,105.2349 z"
       fill="#ABC2AB"
       id="path1"
       style="fill:#191919;fill-opacity:1"
       inkscape:label="UPPER"
       sodipodi:nodetypes="ssssssssss" />
    <path
       d="m 66.657763,19.900193 23.90269,23.90268 c 9.34803,9.34804 24.236267,-10.57659 37.456367,-10.58221 39.77242,-0.0169 72.03822,32.24185 72.01427,72.014257 -0.008,13.21541 -19.94623,28.09237 -10.60151,37.43708 l 23.948,23.94799 c 15.58318,15.58317 19.86486,-39.34713 19.87415,-61.38507 C 233.27623,47.115303 186.13644,-0.03390687 128.01682,2.3125556e-5 105.9849,0.01292313 51.078823,4.3212431 66.657763,19.900193 Z"
       fill="#478061"
       id="path2"
       style="fill:#303030;fill-opacity:1"
       inkscape:label="LOWER"
       sodipodi:nodetypes="sssssssss" />
    <circle
       fill="#ABC2AB"
       id="circle2"
       style="display:none;fill:#b7b7b7;fill-opacity:1"
       r="33.503357"
       cy="105.2349"
       cx="128" />
    <path
       sodipodi:type="star"
       style="fill:#1a1a1a;fill-opacity:1"
       id="path8"
       inkscape:flatsided="true"
       sodipodi:sides="10"
       sodipodi:cx="93.75"
       sodipodi:cy="70.3125"
       sodipodi:r1="28.409607"
       sodipodi:r2="20.887121"
       sodipodi:arg1="0.5214651"
       sodipodi:arg2="0.83562437"
       inkscape:rounded="0"
       inkscape:randomized="0"
       d="M 118.38369,84.464775 105.36058,96.241253 A 54.038284,54.038284 11.877749 0 1 72.678156,89.367241 L 65.502424,73.342391 A 54.038284,54.038284 119.87775 0 1 82.139422,44.383747 l 0,0 a 54.038284,54.038284 11.877749 0 1 32.682418,6.874012 54.038284,54.038284 83.877749 0 1 3.56185,33.207016 z"
       transform="matrix(-1.3660185,0,0,-1.3660185,254.38617,201.54818)"
       inkscape:path-effect="#path-effect8" />
    <path
       d="m 30.591915,124.81039 c -1.147564,0.81968 -2.192665,1.22952 -3.135303,1.22952 h -4.057453 c -0.573782,0 -1.024609,-0.10245 -1.352481,-0.30737 -0.327871,-0.20493 -0.59427,-0.51231 -0.799195,-0.92215 L 0.46842244,86.203138 C 0.38645233,86.121168 0.34546728,86.01871 0.34546728,85.895763 v -0.368865 c 0,-0.409842 0.14344762,-0.737718 0.43034287,-0.983628 C 1.1036817,84.256383 1.615986,84.11294 2.3127229,84.11294 H 27.579567 c 1.35248,0 2.233641,0.409841 2.643482,1.229525 L 43.010172,109.99455 78.85096,85.342465 c 1.188548,-0.819684 2.438574,-1.229525 3.750078,-1.229525 h 3.995963 c 0.532806,0 0.799208,0.225413 0.799208,0.67624 0,0.368856 -0.327871,0.819683 -0.983614,1.35248 z"
       fill="#000000"
       id="path3"
       inkscape:label="V"
       style="fill:#ffffff;fill-opacity:1" />
    <path
       d="m 86.35303,126.03991 c -2.131187,0 -4.016463,-0.32787 -5.65583,-0.98362 -1.639384,-0.69673 -3.012366,-1.63937 -4.118944,-2.82792 -1.106579,-1.18855 -1.946755,-2.58201 -2.520528,-4.18039 -0.573773,-1.63938 -0.860659,-3.40171 -0.860659,-5.287 0,-2.41807 0.409842,-4.79516 1.229525,-7.13126 0.819683,-2.33611 1.946754,-4.56976 3.381213,-6.70095 1.475427,-2.131187 3.196763,-4.098434 5.16401,-5.901741 2.008232,-1.803315 4.180404,-3.360721 6.516517,-4.672216 2.377097,-1.311495 4.877141,-2.336103 7.500131,-3.073825 2.623008,-0.778698 5.307485,-1.168047 8.053425,-1.168047 h 30.12348 c 2.17218,0 4.07795,0.327871 5.71734,0.983614 1.68035,0.655752 3.07381,1.577903 4.18039,2.766451 1.10658,1.147555 1.94676,2.520527 2.52053,4.118918 0.57379,1.59839 0.86069,3.340224 0.86069,5.2255 0,2.418083 -0.43034,4.815666 -1.29101,7.192756 -0.8197,2.33611 -1.96726,4.56976 -3.44269,6.70094 -1.47544,2.13118 -3.21728,4.11893 -5.22551,5.96323 -2.00823,1.80331 -4.2009,3.3812 -6.57799,4.73368 -2.37708,1.3115 -4.87713,2.35661 -7.50013,3.13531 -2.62299,0.73772 -5.26649,1.10657 -7.93048,1.10657 z m 37.00886,-25.1439 c 1.35249,-2.868898 2.02874,-5.020573 2.02874,-6.455023 0,-1.188549 -0.43035,-2.008237 -1.29103,-2.459063 -0.81969,-0.450827 -2.04921,-0.67624 -3.68858,-0.67624 h -8.36081 c -1.18854,0 -2.29512,0.163935 -3.31974,0.491807 -0.98363,0.286895 -1.90577,0.7992 -2.76644,1.536913 -0.86067,0.737722 -1.70084,1.72135 -2.52053,2.950883 -0.77869,1.229526 -1.57788,2.766434 -2.39757,4.610723 l -2.950895,6.70095 c -1.557397,3.48367 -2.336095,6.10667 -2.336095,7.869 0,1.18854 0.348364,2.04921 1.045092,2.582 0.696746,0.49181 1.700862,0.73772 3.012348,0.73772 h 8.42229 c 1.27052,0 2.43858,-0.18443 3.50417,-0.55328 1.0656,-0.40985 2.09021,-1.04511 3.07383,-1.90578 0.98362,-0.86067 1.92626,-2.00823 2.82791,-3.44268 0.90166,-1.43445 1.8238,-3.19678 2.76644,-5.28698 z"
       fill="#000000"
       id="path4"
       inkscape:label="O"
       style="fill:#ffffff;fill-opacity:1" />
    <path
       d="m 144.12269,126.03991 c -0.73771,0 -1.10657,-0.2459 -1.10657,-0.73771 0,-0.2459 0.0615,-0.55329 0.18444,-0.92215 l 17.27487,-38.668719 c 0.49183,-1.065594 1.27053,-1.59839 2.33613,-1.59839 h 21.14791 c 0.7787,0 1.16805,0.266394 1.16805,0.799182 0,0.24591 -0.082,0.512313 -0.24589,0.799208 L 167.6682,124.38005 c -0.49182,1.10658 -1.27052,1.65986 -2.33612,1.65986 z"
       fill="#000000"
       id="path5"
       inkscape:label="I"
       style="fill:#ffffff;fill-opacity:1" />
    <path
       d="m 174.34897,126.03991 c -0.73772,0 -1.10657,-0.2459 -1.10657,-0.73771 0,-0.2459 0.0615,-0.55329 0.18443,-0.92215 l 17.27488,-38.668719 c 0.49182,-1.065594 1.27053,-1.59839 2.33612,-1.59839 h 49.42712 c 2.13119,0 4.01646,0.327871 5.65583,0.983614 1.63937,0.655752 3.01234,1.577903 4.11892,2.766451 1.10657,1.147555 1.94676,2.520527 2.52055,4.118918 0.57377,1.59839 0.86066,3.340224 0.86066,5.2255 0,2.500053 -0.43033,4.959116 -1.291,7.377186 -0.86067,2.37709 -2.04922,4.63123 -3.56565,6.76242 -1.47543,2.13118 -3.23775,4.09843 -5.28696,5.90174 -2.00824,1.80331 -4.2009,3.36072 -6.578,4.67221 -2.33611,1.27052 -4.79517,2.27464 -7.37717,3.01235 -2.58203,0.73772 -5.16404,1.10658 -7.74605,1.10658 z m 53.48456,-25.1439 c 1.3115,-2.950868 1.96725,-5.102543 1.96725,-6.455023 0,-1.188549 -0.40984,-2.008237 -1.22952,-2.459063 -0.81969,-0.450827 -2.00824,-0.67624 -3.56565,-0.67624 h -12.47973 l -12.17235,27.479996 h 12.41826 c 1.22953,0 2.37709,-0.18443 3.44269,-0.55328 1.06559,-0.40985 2.06971,-1.0451 3.01234,-1.90578 0.98363,-0.90166 1.92627,-2.04921 2.82792,-3.44268 0.94264,-1.43445 1.88528,-3.19678 2.82791,-5.28698 z"
       fill="#000000"
       id="path6"
       inkscape:label="D"
       style="fill:#ffffff;fill-opacity:1" />
  </g>
</svg>
